<?xml version="1.0" standalone="no"?>
<!DOCTYPE svg PUBLIC "-//W3C//DTD SVG 20010904//EN"
 "http://www.w3.org/TR/2001/REC-SVG-20010904/DTD/svg10.dtd">
<svg version="1.0" xmlns="http://www.w3.org/2000/svg"
 width="20.000000pt" height="17.000000pt" viewBox="0 0 20.000000 17.000000"
 preserveAspectRatio="xMidYMid meet">
<metadata>
Created by potrace 1.16, written by Peter Selinger 2001-2019
</metadata>
<g transform="translate(0.000000,17.000000) scale(0.005000,-0.004250)"
fill="#000000" stroke="none">
<path d="M1840 3465 c-107 -29 -198 -83 -280 -164 -134 -133 -195 -277 -194
-461 0 -93 4 -115 32 -189 52 -137 165 -314 298 -468 30 -33 54 -64 54 -67 0
-3 -110 -6 -245 -6 l-245 0 0 -110 0 -110 315 0 315 0 0 -670 0 -670 110 0
110 0 0 670 0 670 310 0 310 0 0 110 0 110 -245 0 -245 0 80 97 c214 258 312
457 312 633 1 274 -174 521 -432 611 -84 29 -276 37 -360 14z m273 -225 c212
-66 347 -309 277 -502 -43 -119 -173 -311 -332 -488 l-57 -64 -22 19 c-79 71
-264 317 -328 436 -77 144 -83 243 -22 374 89 190 292 284 484 225z"/>
</g>
</svg>
